<svg width="124" height="46" viewBox="0 0 124 46" fill="none" xmlns="http://www.w3.org/2000/svg">
<path d="M8.52 8.88C8.25333 8.49333 7.89333 8.21333 7.44 8.04C7 7.85333 6.53333 7.76 6.04 7.76C5.74667 7.76 5.46 7.79333 5.18 7.86C4.91333 7.92667 4.66667 8.03333 4.44 8.18C4.22667 8.32667 4.05333 8.52 3.92 8.76C3.78667 8.98667 3.72 9.26 3.72 9.58C3.72 10.06 3.88667 10.4267 4.22 10.68C4.55333 10.9333 4.96667 11.1533 5.46 11.34C5.95333 11.5267 6.49333 11.7067 7.08 11.88C7.66667 12.0533 8.20667 12.2933 8.7 12.6C9.19333 12.9067 9.60667 13.3133 9.94 13.82C10.2733 14.3267 10.44 15 10.44 15.84C10.44 16.6 10.3 17.2667 10.02 17.84C9.74 18.4 9.36 18.8667 8.88 19.24C8.41333 19.6133 7.86667 19.8933 7.24 20.08C6.61333 20.2667 5.95333 20.36 5.26 20.36C4.38 20.36 3.53333 20.2133 2.72 19.92C1.90667 19.6267 1.20667 19.1333 0.62 18.44L2.52 16.6C2.82667 17.0667 3.22667 17.4333 3.72 17.7C4.22667 17.9533 4.76 18.08 5.32 18.08C5.61333 18.08 5.90667 18.04 6.2 17.96C6.49333 17.88 6.76 17.76 7 17.6C7.24 17.44 7.43333 17.24 7.58 17C7.72667 16.7467 7.8 16.46 7.8 16.14C7.8 15.62 7.63333 15.22 7.3 14.94C6.96667 14.66 6.55333 14.4267 6.06 14.24C5.56667 14.04 5.02667 13.8533 4.44 13.68C3.85333 13.5067 3.31333 13.2733 2.82 12.98C2.32667 12.6733 1.91333 12.2733 1.58 11.78C1.24667 11.2733 1.08 10.6 1.08 9.76C1.08 9.02667 1.22667 8.39333 1.52 7.86C1.82667 7.32667 2.22 6.88667 2.7 6.54C3.19333 6.18 3.75333 5.91333 4.38 5.74C5.00667 5.56667 5.64667 5.48 6.3 5.48C7.04667 5.48 7.76667 5.59333 8.46 5.82C9.16667 6.04667 9.8 6.42 10.36 6.94L8.52 8.88ZM15.2444 11.74H15.2844C15.471 11.34 15.7977 10.98 16.2644 10.66C16.7444 10.3267 17.3577 10.16 18.1044 10.16C18.7444 10.16 19.2844 10.2667 19.7244 10.48C20.1777 10.6933 20.5444 10.9733 20.8244 11.32C21.1044 11.6667 21.3044 12.0667 21.4244 12.52C21.5444 12.9733 21.6044 13.4467 21.6044 13.94V20H19.2044V15.14C19.2044 14.8733 19.191 14.58 19.1644 14.26C19.1377 13.9267 19.0644 13.62 18.9444 13.34C18.8377 13.0467 18.6644 12.8067 18.4244 12.62C18.1844 12.42 17.8577 12.32 17.4444 12.32C17.0444 12.32 16.7044 12.3867 16.4244 12.52C16.1577 12.6533 15.931 12.8333 15.7444 13.06C15.571 13.2867 15.4444 13.5467 15.3644 13.84C15.2844 14.1333 15.2444 14.44 15.2444 14.76V20H12.8444V4.88H15.2444V11.74ZM26.2488 16.04C26.3288 16.76 26.6088 17.32 27.0888 17.72C27.5688 18.12 28.1488 18.32 28.8288 18.32C29.4288 18.32 29.9288 18.2 30.3288 17.96C30.7421 17.7067 31.1021 17.3933 31.4088 17.02L33.1288 18.32C32.5688 19.0133 31.9421 19.5067 31.2488 19.8C30.5554 20.0933 29.8288 20.24 29.0688 20.24C28.3488 20.24 27.6688 20.12 27.0288 19.88C26.3888 19.64 25.8354 19.3 25.3688 18.86C24.9021 18.42 24.5288 17.8933 24.2488 17.28C23.9821 16.6533 23.8488 15.96 23.8488 15.2C23.8488 14.44 23.9821 13.7533 24.2488 13.14C24.5288 12.5133 24.9021 11.98 25.3688 11.54C25.8354 11.1 26.3888 10.76 27.0288 10.52C27.6688 10.28 28.3488 10.16 29.0688 10.16C29.7354 10.16 30.3421 10.28 30.8888 10.52C31.4488 10.7467 31.9221 11.08 32.3088 11.52C32.7088 11.96 33.0154 12.5067 33.2288 13.16C33.4554 13.8 33.5688 14.54 33.5688 15.38V16.04H26.2488ZM31.1688 14.24C31.1554 13.5333 30.9354 12.98 30.5088 12.58C30.0821 12.1667 29.4888 11.96 28.7288 11.96C28.0088 11.96 27.4354 12.1667 27.0088 12.58C26.5954 12.9933 26.3421 13.5467 26.2488 14.24H31.1688ZM34.5131 10.4H37.1531L39.8331 17.06H39.8731L42.2731 10.4H44.7731L40.2331 22.06C40.0598 22.5133 39.8665 22.9067 39.6531 23.24C39.4531 23.5867 39.2131 23.8733 38.9331 24.1C38.6531 24.34 38.3198 24.5133 37.9331 24.62C37.5598 24.74 37.1065 24.8 36.5731 24.8C35.9465 24.8 35.3331 24.72 34.7331 24.56L35.0331 22.4C35.2198 22.4667 35.4131 22.52 35.6131 22.56C35.8265 22.6133 36.0398 22.64 36.2531 22.64C36.5465 22.64 36.7931 22.6133 36.9931 22.56C37.1931 22.5067 37.3598 22.42 37.4931 22.3C37.6398 22.1933 37.7598 22.0467 37.8531 21.86C37.9465 21.6867 38.0465 21.4733 38.1531 21.22L38.6131 20.08L34.5131 10.4ZM52.3222 5.84H55.6622L62.5222 16.36H62.5622V5.84H65.0822V20H61.8822L54.8822 9.14H54.8422V20H52.3222V5.84ZM74.0202 18.68H73.9602C73.6135 19.2267 73.1735 19.6267 72.6402 19.88C72.1068 20.12 71.5202 20.24 70.8802 20.24C70.4402 20.24 70.0068 20.18 69.5802 20.06C69.1668 19.94 68.7935 19.76 68.4602 19.52C68.1402 19.28 67.8802 18.98 67.6802 18.62C67.4802 18.26 67.3802 17.84 67.3802 17.36C67.3802 16.84 67.4735 16.4 67.6602 16.04C67.8468 15.6667 68.0935 15.36 68.4002 15.12C68.7202 14.8667 69.0868 14.6667 69.5002 14.52C69.9135 14.3733 70.3402 14.2667 70.7802 14.2C71.2335 14.12 71.6868 14.0733 72.1402 14.06C72.5935 14.0333 73.0202 14.02 73.4202 14.02H74.0202V13.76C74.0202 13.16 73.8135 12.7133 73.4002 12.42C72.9868 12.1133 72.4602 11.96 71.8202 11.96C71.3135 11.96 70.8402 12.0533 70.4002 12.24C69.9602 12.4133 69.5802 12.6533 69.2602 12.96L68.0002 11.7C68.5335 11.1533 69.1535 10.76 69.8602 10.52C70.5802 10.28 71.3202 10.16 72.0802 10.16C72.7602 10.16 73.3335 10.24 73.8002 10.4C74.2668 10.5467 74.6535 10.74 74.9602 10.98C75.2668 11.22 75.5002 11.5 75.6602 11.82C75.8335 12.1267 75.9535 12.44 76.0202 12.76C76.1002 13.08 76.1468 13.3933 76.1602 13.7C76.1735 13.9933 76.1802 14.2533 76.1802 14.48V20H74.0202V18.68ZM73.8802 15.7H73.3802C73.0468 15.7 72.6735 15.7133 72.2602 15.74C71.8468 15.7667 71.4535 15.8333 71.0802 15.94C70.7202 16.0333 70.4135 16.18 70.1602 16.38C69.9068 16.5667 69.7802 16.8333 69.7802 17.18C69.7802 17.4067 69.8268 17.6 69.9202 17.76C70.0268 17.9067 70.1602 18.0333 70.3202 18.14C70.4802 18.2467 70.6602 18.3267 70.8602 18.38C71.0602 18.42 71.2602 18.44 71.4602 18.44C72.2868 18.44 72.8935 18.2467 73.2802 17.86C73.6802 17.46 73.8802 16.92 73.8802 16.24V15.7ZM77.4623 10.4H80.0823L82.6423 17.12H82.6823L85.2623 10.4H87.7223L83.9423 20H81.3823L77.4623 10.4ZM91.0534 16.04C91.1334 16.76 91.4134 17.32 91.8934 17.72C92.3734 18.12 92.9534 18.32 93.6334 18.32C94.2334 18.32 94.7334 18.2 95.1334 17.96C95.5468 17.7067 95.9068 17.3933 96.2134 17.02L97.9334 18.32C97.3734 19.0133 96.7468 19.5067 96.0534 19.8C95.3601 20.0933 94.6334 20.24 93.8734 20.24C93.1534 20.24 92.4734 20.12 91.8334 19.88C91.1934 19.64 90.6401 19.3 90.1734 18.86C89.7068 18.42 89.3334 17.8933 89.0534 17.28C88.7868 16.6533 88.6534 15.96 88.6534 15.2C88.6534 14.44 88.7868 13.7533 89.0534 13.14C89.3334 12.5133 89.7068 11.98 90.1734 11.54C90.6401 11.1 91.1934 10.76 91.8334 10.52C92.4734 10.28 93.1534 10.16 93.8734 10.16C94.5401 10.16 95.1468 10.28 95.6934 10.52C96.2534 10.7467 96.7268 11.08 97.1134 11.52C97.5134 11.96 97.8201 12.5067 98.0334 13.16C98.2601 13.8 98.3734 14.54 98.3734 15.38V16.04H91.0534ZM95.9734 14.24C95.9601 13.5333 95.7401 12.98 95.3134 12.58C94.8868 12.1667 94.2934 11.96 93.5334 11.96C92.8134 11.96 92.2401 12.1667 91.8134 12.58C91.4001 12.9933 91.1468 13.5467 91.0534 14.24H95.9734ZM102.538 16.04C102.618 16.76 102.898 17.32 103.378 17.72C103.858 18.12 104.438 18.32 105.118 18.32C105.718 18.32 106.218 18.2 106.618 17.96C107.031 17.7067 107.391 17.3933 107.698 17.02L109.418 18.32C108.858 19.0133 108.231 19.5067 107.538 19.8C106.844 20.0933 106.118 20.24 105.358 20.24C104.638 20.24 103.958 20.12 103.318 19.88C102.678 19.64 102.124 19.3 101.658 18.86C101.191 18.42 100.818 17.8933 100.538 17.28C100.271 16.6533 100.138 15.96 100.138 15.2C100.138 14.44 100.271 13.7533 100.538 13.14C100.818 12.5133 101.191 11.98 101.658 11.54C102.124 11.1 102.678 10.76 103.318 10.52C103.958 10.28 104.638 10.16 105.358 10.16C106.024 10.16 106.631 10.28 107.178 10.52C107.738 10.7467 108.211 11.08 108.598 11.52C108.998 11.96 109.304 12.5067 109.518 13.16C109.744 13.8 109.858 14.54 109.858 15.38V16.04H102.538ZM107.458 14.24C107.444 13.5333 107.224 12.98 106.798 12.58C106.371 12.1667 105.778 11.96 105.018 11.96C104.298 11.96 103.724 12.1667 103.298 12.58C102.884 12.9933 102.631 13.5467 102.538 14.24H107.458ZM119.702 18.56H119.662C119.316 19.1467 118.849 19.5733 118.262 19.84C117.676 20.1067 117.042 20.24 116.362 20.24C115.616 20.24 114.949 20.1133 114.362 19.86C113.789 19.5933 113.296 19.2333 112.882 18.78C112.469 18.3267 112.156 17.7933 111.942 17.18C111.729 16.5667 111.622 15.9067 111.622 15.2C111.622 14.4933 111.736 13.8333 111.962 13.22C112.189 12.6067 112.502 12.0733 112.902 11.62C113.316 11.1667 113.809 10.8133 114.382 10.56C114.956 10.2933 115.582 10.16 116.262 10.16C116.716 10.16 117.116 10.2067 117.462 10.3C117.809 10.3933 118.116 10.5133 118.382 10.66C118.649 10.8067 118.876 10.9667 119.062 11.14C119.249 11.3 119.402 11.46 119.522 11.62H119.582V4.88H121.982V20H119.702V18.56ZM114.022 15.2C114.022 15.5733 114.082 15.9333 114.202 16.28C114.336 16.6267 114.522 16.9333 114.762 17.2C115.016 17.4667 115.316 17.68 115.662 17.84C116.009 18 116.402 18.08 116.842 18.08C117.282 18.08 117.676 18 118.022 17.84C118.369 17.68 118.662 17.4667 118.902 17.2C119.156 16.9333 119.342 16.6267 119.462 16.28C119.596 15.9333 119.662 15.5733 119.662 15.2C119.662 14.8267 119.596 14.4667 119.462 14.12C119.342 13.7733 119.156 13.4667 118.902 13.2C118.662 12.9333 118.369 12.72 118.022 12.56C117.676 12.4 117.282 12.32 116.842 12.32C116.402 12.32 116.009 12.4 115.662 12.56C115.316 12.72 115.016 12.9333 114.762 13.2C114.522 13.4667 114.336 13.7733 114.202 14.12C114.082 14.4667 114.022 14.8267 114.022 15.2ZM2.016 36.26H3.408C3.792 36.26 4.116 36.22 4.38 36.14C4.652 36.06 4.868 35.956 5.028 35.828C5.188 35.692 5.304 35.536 5.376 35.36C5.448 35.176 5.484 34.98 5.484 34.772C5.484 34.572 5.448 34.384 5.376 34.208C5.304 34.024 5.188 33.864 5.028 33.728C4.868 33.592 4.652 33.488 4.38 33.416C4.116 33.336 3.792 33.296 3.408 33.296H2.016V36.26ZM1.152 32.504H3.624C4.488 32.504 5.168 32.692 5.664 33.068C6.168 33.444 6.42 34.012 6.42 34.772C6.42 35.532 6.168 36.104 5.664 36.488C5.168 36.864 4.488 37.052 3.624 37.052H2.016V41H1.152V32.504ZM7.83863 37.136C7.83863 36.888 7.83063 36.636 7.81463 36.38C7.80663 36.124 7.79863 35.792 7.79063 35.384H8.57063V36.428H8.59463C8.65063 36.276 8.73063 36.132 8.83463 35.996C8.93863 35.852 9.06263 35.724 9.20663 35.612C9.35863 35.5 9.53063 35.412 9.72263 35.348C9.92263 35.276 10.1466 35.24 10.3946 35.24C10.6186 35.24 10.8146 35.264 10.9826 35.312L10.8266 36.092C10.7226 36.052 10.5706 36.032 10.3706 36.032C10.0666 36.032 9.80663 36.092 9.59063 36.212C9.37463 36.324 9.19463 36.472 9.05063 36.656C8.90663 36.832 8.79863 37.024 8.72663 37.232C8.66263 37.44 8.63063 37.64 8.63063 37.832V41H7.83863V37.136ZM16.3401 38.192C16.3401 37.88 16.2881 37.588 16.1841 37.316C16.0881 37.044 15.9481 36.808 15.7641 36.608C15.5801 36.408 15.3561 36.252 15.0921 36.14C14.8361 36.02 14.5441 35.96 14.2161 35.96C13.8881 35.96 13.5921 36.02 13.3281 36.14C13.0721 36.252 12.8521 36.408 12.6681 36.608C12.4921 36.808 12.3521 37.044 12.2481 37.316C12.1521 37.588 12.1041 37.88 12.1041 38.192C12.1041 38.504 12.1521 38.796 12.2481 39.068C12.3521 39.34 12.4921 39.576 12.6681 39.776C12.8521 39.976 13.0721 40.136 13.3281 40.256C13.5921 40.368 13.8881 40.424 14.2161 40.424C14.5441 40.424 14.8361 40.368 15.0921 40.256C15.3561 40.136 15.5801 39.976 15.7641 39.776C15.9481 39.576 16.0881 39.34 16.1841 39.068C16.2881 38.796 16.3401 38.504 16.3401 38.192ZM17.2041 38.192C17.2041 38.616 17.1281 39.008 16.9761 39.368C16.8321 39.728 16.6281 40.04 16.3641 40.304C16.1001 40.568 15.7841 40.776 15.4161 40.928C15.0561 41.072 14.6561 41.144 14.2161 41.144C13.7841 41.144 13.3841 41.072 13.0161 40.928C12.6561 40.776 12.3441 40.568 12.0801 40.304C11.8161 40.04 11.6081 39.728 11.4561 39.368C11.3121 39.008 11.2401 38.616 11.2401 38.192C11.2401 37.768 11.3121 37.376 11.4561 37.016C11.6081 36.656 11.8161 36.344 12.0801 36.08C12.3441 35.816 12.6561 35.612 13.0161 35.468C13.3841 35.316 13.7841 35.24 14.2161 35.24C14.6561 35.24 15.0561 35.316 15.4161 35.468C15.7841 35.612 16.1001 35.816 16.3641 36.08C16.6281 36.344 16.8321 36.656 16.9761 37.016C17.1281 37.376 17.2041 37.768 17.2041 38.192ZM19.1213 38.192C19.1213 38.504 19.1693 38.796 19.2653 39.068C19.3693 39.34 19.5133 39.576 19.6973 39.776C19.8813 39.976 20.1013 40.136 20.3573 40.256C20.6213 40.368 20.9173 40.424 21.2453 40.424C21.5653 40.424 21.8613 40.368 22.1333 40.256C22.4133 40.136 22.6533 39.976 22.8533 39.776C23.0533 39.576 23.2093 39.34 23.3213 39.068C23.4333 38.796 23.4893 38.504 23.4893 38.192C23.4893 37.88 23.4333 37.588 23.3213 37.316C23.2093 37.044 23.0533 36.808 22.8533 36.608C22.6533 36.408 22.4133 36.252 22.1333 36.14C21.8613 36.02 21.5653 35.96 21.2453 35.96C20.9173 35.96 20.6213 36.02 20.3573 36.14C20.1013 36.252 19.8813 36.408 19.6973 36.608C19.5133 36.808 19.3693 37.044 19.2653 37.316C19.1693 37.588 19.1213 37.88 19.1213 38.192ZM24.2453 41H23.4533V40.064H23.4293C23.3013 40.256 23.1493 40.42 22.9733 40.556C22.7973 40.692 22.6133 40.804 22.4213 40.892C22.2293 40.98 22.0293 41.044 21.8213 41.084C21.6213 41.124 21.4293 41.144 21.2453 41.144C20.8053 41.144 20.4013 41.072 20.0333 40.928C19.6733 40.776 19.3613 40.568 19.0973 40.304C18.8333 40.04 18.6253 39.728 18.4733 39.368C18.3293 39.008 18.2573 38.616 18.2573 38.192C18.2573 37.768 18.3293 37.376 18.4733 37.016C18.6253 36.656 18.8333 36.344 19.0973 36.08C19.3613 35.816 19.6733 35.612 20.0333 35.468C20.4013 35.316 20.8053 35.24 21.2453 35.24C21.4293 35.24 21.6213 35.26 21.8213 35.3C22.0293 35.34 22.2293 35.404 22.4213 35.492C22.6133 35.58 22.7973 35.692 22.9733 35.828C23.1493 35.964 23.3013 36.128 23.4293 36.32H23.4533V31.928H24.2453V41ZM30.0333 41C30.0173 40.848 30.0053 40.7 29.9973 40.556C29.9973 40.404 29.9973 40.252 29.9973 40.1H29.9733C29.8853 40.252 29.7733 40.392 29.6373 40.52C29.5013 40.648 29.3493 40.76 29.1813 40.856C29.0133 40.944 28.8333 41.012 28.6413 41.06C28.4573 41.116 28.2733 41.144 28.0893 41.144C27.3693 41.144 26.8373 40.956 26.4933 40.58C26.1493 40.196 25.9773 39.652 25.9773 38.948V35.384H26.7693V38.492C26.7693 38.804 26.7933 39.08 26.8413 39.32C26.8893 39.56 26.9693 39.764 27.0813 39.932C27.2013 40.092 27.3573 40.216 27.5493 40.304C27.7493 40.384 27.9973 40.424 28.2933 40.424C28.3333 40.424 28.4453 40.408 28.6293 40.376C28.8133 40.344 29.0053 40.256 29.2053 40.112C29.4133 39.968 29.5973 39.752 29.7573 39.464C29.9173 39.176 29.9973 38.776 29.9973 38.264V35.384H30.7893V39.764C30.7893 39.916 30.7933 40.108 30.8013 40.34C30.8173 40.572 30.8333 40.792 30.8493 41H30.0333ZM36.7373 36.704C36.6013 36.496 36.4093 36.32 36.1613 36.176C35.9213 36.032 35.6453 35.96 35.3333 35.96C35.0053 35.952 34.7093 36.004 34.4453 36.116C34.1893 36.228 33.9693 36.384 33.7853 36.584C33.6013 36.784 33.4613 37.024 33.3652 37.304C33.2693 37.576 33.2213 37.872 33.2213 38.192C33.2213 38.512 33.2693 38.812 33.3652 39.092C33.4613 39.364 33.6013 39.6 33.7853 39.8C33.9693 40 34.1893 40.156 34.4453 40.268C34.7093 40.38 35.0053 40.432 35.3333 40.424C35.6453 40.424 35.9213 40.352 36.1613 40.208C36.4093 40.064 36.6013 39.888 36.7373 39.68L37.3853 40.172C37.1053 40.5 36.7893 40.744 36.4373 40.904C36.0853 41.056 35.7173 41.136 35.3333 41.144C34.8773 41.152 34.4653 41.084 34.0973 40.94C33.7293 40.788 33.4133 40.58 33.1493 40.316C32.8933 40.052 32.6973 39.74 32.5613 39.38C32.4253 39.012 32.3573 38.616 32.3573 38.192C32.3573 37.768 32.4253 37.376 32.5613 37.016C32.6973 36.648 32.8933 36.332 33.1493 36.068C33.4133 35.804 33.7293 35.6 34.0973 35.456C34.4653 35.304 34.8773 35.232 35.3333 35.24C35.7173 35.248 36.0853 35.332 36.4373 35.492C36.7893 35.644 37.1053 35.884 37.3853 36.212L36.7373 36.704ZM41.3383 36.104H39.7183V39.416C39.7183 39.624 39.7383 39.796 39.7783 39.932C39.8183 40.06 39.8743 40.16 39.9463 40.232C40.0183 40.304 40.1023 40.356 40.1983 40.388C40.3023 40.412 40.4143 40.424 40.5343 40.424C40.6703 40.424 40.8103 40.404 40.9543 40.364C41.0983 40.324 41.2303 40.272 41.3503 40.208L41.3863 40.94C41.0903 41.076 40.7343 41.144 40.3183 41.144C40.1663 41.144 40.0063 41.124 39.8383 41.084C39.6783 41.044 39.5303 40.968 39.3943 40.856C39.2583 40.744 39.1463 40.592 39.0583 40.4C38.9703 40.208 38.9263 39.956 38.9263 39.644V36.104H37.7383V35.384H38.9263V33.8H39.7183V35.384H41.3383V36.104ZM46.7905 40.208H48.4705C49.1185 40.208 49.6785 40.112 50.1505 39.92C50.6305 39.72 51.0265 39.46 51.3385 39.14C51.6585 38.812 51.8945 38.444 52.0465 38.036C52.1985 37.62 52.2745 37.192 52.2745 36.752C52.2745 36.312 52.1985 35.888 52.0465 35.48C51.8945 35.064 51.6585 34.696 51.3385 34.376C51.0265 34.048 50.6305 33.788 50.1505 33.596C49.6785 33.396 49.1185 33.296 48.4705 33.296H46.7905V40.208ZM45.9265 32.504H48.7465C49.2745 32.504 49.8025 32.592 50.3305 32.768C50.8665 32.944 51.3465 33.212 51.7705 33.572C52.2025 33.924 52.5505 34.368 52.8145 34.904C53.0785 35.432 53.2105 36.048 53.2105 36.752C53.2105 37.464 53.0785 38.084 52.8145 38.612C52.5505 39.14 52.2025 39.584 51.7705 39.944C51.3465 40.296 50.8665 40.56 50.3305 40.736C49.8025 40.912 49.2745 41 48.7465 41H45.9265V32.504ZM59.0211 37.76C59.0211 37.224 58.8611 36.792 58.5411 36.464C58.2211 36.128 57.7731 35.96 57.1971 35.96C56.9411 35.96 56.6931 36.012 56.4531 36.116C56.2131 36.212 56.0011 36.344 55.8171 36.512C55.6411 36.68 55.4971 36.872 55.3851 37.088C55.2811 37.304 55.2291 37.528 55.2291 37.76H59.0211ZM55.2051 38.408C55.2291 38.688 55.2971 38.952 55.4091 39.2C55.5211 39.448 55.6691 39.664 55.8531 39.848C56.0371 40.024 56.2491 40.164 56.4891 40.268C56.7291 40.372 56.9891 40.424 57.2691 40.424C57.6931 40.424 58.0571 40.328 58.3611 40.136C58.6731 39.936 58.9091 39.708 59.0691 39.452L59.6811 39.956C59.3451 40.38 58.9731 40.684 58.5651 40.868C58.1651 41.052 57.7331 41.144 57.2691 41.144C56.8531 41.144 56.4651 41.072 56.1051 40.928C55.7531 40.776 55.4491 40.568 55.1931 40.304C54.9371 40.04 54.7331 39.728 54.5811 39.368C54.4371 39.008 54.3651 38.616 54.3651 38.192C54.3651 37.768 54.4371 37.376 54.5811 37.016C54.7251 36.656 54.9251 36.344 55.1811 36.08C55.4371 35.816 55.7371 35.612 56.0811 35.468C56.4251 35.316 56.7971 35.24 57.1971 35.24C57.6211 35.24 58.0011 35.316 58.3371 35.468C58.6731 35.62 58.9531 35.824 59.1771 36.08C59.4091 36.328 59.5851 36.624 59.7051 36.968C59.8251 37.304 59.8851 37.664 59.8851 38.048V38.408H55.2051ZM64.297 36.716C64.177 36.484 64.017 36.3 63.817 36.164C63.617 36.028 63.373 35.96 63.085 35.96C62.949 35.96 62.809 35.976 62.665 36.008C62.529 36.04 62.405 36.092 62.293 36.164C62.181 36.228 62.089 36.312 62.017 36.416C61.953 36.52 61.921 36.648 61.921 36.8C61.921 37.064 62.013 37.256 62.197 37.376C62.381 37.496 62.657 37.6 63.025 37.688L63.829 37.88C64.221 37.968 64.545 38.148 64.801 38.42C65.065 38.684 65.197 39.016 65.197 39.416C65.197 39.72 65.133 39.984 65.005 40.208C64.885 40.424 64.721 40.604 64.513 40.748C64.313 40.884 64.081 40.984 63.817 41.048C63.553 41.112 63.285 41.144 63.013 41.144C62.581 41.144 62.177 41.064 61.801 40.904C61.433 40.736 61.117 40.452 60.853 40.052L61.537 39.584C61.697 39.84 61.897 40.044 62.137 40.196C62.385 40.348 62.677 40.424 63.013 40.424C63.173 40.424 63.333 40.408 63.493 40.376C63.653 40.336 63.793 40.28 63.913 40.208C64.041 40.128 64.141 40.028 64.213 39.908C64.293 39.788 64.333 39.648 64.333 39.488C64.333 39.208 64.229 39.008 64.021 38.888C63.813 38.76 63.561 38.66 63.265 38.588L62.497 38.408C62.401 38.384 62.269 38.344 62.101 38.288C61.941 38.232 61.781 38.148 61.621 38.036C61.469 37.924 61.337 37.78 61.225 37.604C61.113 37.42 61.057 37.196 61.057 36.932C61.057 36.644 61.113 36.392 61.225 36.176C61.345 35.96 61.501 35.784 61.693 35.648C61.893 35.512 62.117 35.412 62.365 35.348C62.613 35.276 62.869 35.24 63.133 35.24C63.525 35.24 63.889 35.316 64.225 35.468C64.561 35.62 64.821 35.88 65.005 36.248L64.297 36.716ZM67.5824 33.224C67.5824 33.392 67.5224 33.532 67.4024 33.644C67.2824 33.748 67.1504 33.8 67.0064 33.8C66.8624 33.8 66.7304 33.748 66.6104 33.644C66.4904 33.532 66.4304 33.392 66.4304 33.224C66.4304 33.056 66.4904 32.92 66.6104 32.816C66.7304 32.704 66.8624 32.648 67.0064 32.648C67.1504 32.648 67.2824 32.704 67.4024 32.816C67.5224 32.92 67.5824 33.056 67.5824 33.224ZM67.4024 41H66.6104V35.384H67.4024V41ZM69.8892 38.12C69.8892 38.416 69.9412 38.696 70.0452 38.96C70.1572 39.216 70.3052 39.444 70.4892 39.644C70.6812 39.836 70.9012 39.992 71.1492 40.112C71.4052 40.224 71.6812 40.28 71.9772 40.28C72.2652 40.28 72.5372 40.228 72.7932 40.124C73.0572 40.02 73.2892 39.876 73.4892 39.692C73.6892 39.5 73.8412 39.272 73.9452 39.008C74.0572 38.744 74.1092 38.448 74.1012 38.12C74.1012 37.824 74.0532 37.548 73.9572 37.292C73.8612 37.028 73.7212 36.8 73.5372 36.608C73.3532 36.408 73.1292 36.252 72.8652 36.14C72.6012 36.02 72.3052 35.96 71.9772 35.96C71.6812 35.96 71.4052 36.02 71.1492 36.14C70.9012 36.252 70.6812 36.408 70.4892 36.608C70.3052 36.8 70.1572 37.028 70.0452 37.292C69.9412 37.548 69.8892 37.824 69.8892 38.12ZM69.7452 42.128C69.9772 42.44 70.2772 42.688 70.6452 42.872C71.0212 43.064 71.4372 43.16 71.8932 43.16C72.2932 43.16 72.6332 43.1 72.9132 42.98C73.1932 42.868 73.4172 42.712 73.5852 42.512C73.7612 42.312 73.8852 42.076 73.9572 41.804C74.0372 41.54 74.0772 41.256 74.0772 40.952V39.944H74.0532C73.7972 40.328 73.4852 40.6 73.1172 40.76C72.7492 40.92 72.3612 41 71.9532 41C71.5452 41 71.1612 40.928 70.8012 40.784C70.4492 40.64 70.1412 40.444 69.8772 40.196C69.6132 39.94 69.4052 39.636 69.2532 39.284C69.1012 38.932 69.0252 38.552 69.0252 38.144C69.0252 37.736 69.0972 37.356 69.2412 37.004C69.3852 36.652 69.5812 36.344 69.8292 36.08C70.0852 35.816 70.3852 35.612 70.7292 35.468C71.0812 35.316 71.4652 35.24 71.8812 35.24C72.0492 35.24 72.2252 35.256 72.4092 35.288C72.6012 35.32 72.7892 35.376 72.9732 35.456C73.1652 35.536 73.3532 35.648 73.5372 35.792C73.7212 35.928 73.8932 36.104 74.0532 36.32H74.0772V35.384H74.8692V40.952C74.8692 41.256 74.8292 41.58 74.7492 41.924C74.6772 42.268 74.5292 42.584 74.3052 42.872C74.0892 43.16 73.7852 43.4 73.3932 43.592C73.0012 43.784 72.4892 43.88 71.8572 43.88C71.2972 43.88 70.7972 43.788 70.3572 43.604C69.9172 43.42 69.5172 43.136 69.1572 42.752L69.7452 42.128ZM77.4052 35.384C77.4212 35.536 77.4292 35.688 77.4292 35.84C77.4372 35.984 77.4412 36.132 77.4412 36.284H77.4652C77.5532 36.132 77.6652 35.992 77.8012 35.864C77.9372 35.736 78.0892 35.628 78.2572 35.54C78.4252 35.444 78.6012 35.372 78.7852 35.324C78.9772 35.268 79.1652 35.24 79.3492 35.24C80.0692 35.24 80.6012 35.432 80.9452 35.816C81.2892 36.192 81.4612 36.732 81.4612 37.436V41H80.6692V37.892C80.6692 37.268 80.5612 36.792 80.3452 36.464C80.1292 36.128 79.7292 35.96 79.1452 35.96C79.1052 35.96 78.9932 35.976 78.8092 36.008C78.6252 36.04 78.4292 36.128 78.2212 36.272C78.0212 36.416 77.8412 36.632 77.6812 36.92C77.5212 37.208 77.4412 37.608 77.4412 38.12V41H76.6492V36.62C76.6492 36.468 76.6412 36.276 76.6252 36.044C76.6172 35.812 76.6052 35.592 76.5892 35.384H77.4052ZM87.6851 37.76C87.6851 37.224 87.5251 36.792 87.2051 36.464C86.8851 36.128 86.4371 35.96 85.8611 35.96C85.6051 35.96 85.3571 36.012 85.1171 36.116C84.8771 36.212 84.6651 36.344 84.4811 36.512C84.3051 36.68 84.1611 36.872 84.0491 37.088C83.9451 37.304 83.8931 37.528 83.8931 37.76H87.6851ZM83.8691 38.408C83.8931 38.688 83.9611 38.952 84.0731 39.2C84.1851 39.448 84.3331 39.664 84.5171 39.848C84.7011 40.024 84.9131 40.164 85.1531 40.268C85.3931 40.372 85.6531 40.424 85.9331 40.424C86.3571 40.424 86.7211 40.328 87.0251 40.136C87.3371 39.936 87.5731 39.708 87.7331 39.452L88.3451 39.956C88.0091 40.38 87.6371 40.684 87.2291 40.868C86.8291 41.052 86.3971 41.144 85.9331 41.144C85.5171 41.144 85.1291 41.072 84.7691 40.928C84.4171 40.776 84.1131 40.568 83.8571 40.304C83.6011 40.04 83.3971 39.728 83.2451 39.368C83.1011 39.008 83.0291 38.616 83.0291 38.192C83.0291 37.768 83.1011 37.376 83.2451 37.016C83.3891 36.656 83.5891 36.344 83.8451 36.08C84.1011 35.816 84.4011 35.612 84.7451 35.468C85.0891 35.316 85.4611 35.24 85.8611 35.24C86.2851 35.24 86.6651 35.316 87.0011 35.468C87.3371 35.62 87.6171 35.824 87.8411 36.08C88.0731 36.328 88.2491 36.624 88.3691 36.968C88.4891 37.304 88.5491 37.664 88.5491 38.048V38.408H83.8691ZM90.0691 37.136C90.0691 36.888 90.0611 36.636 90.0451 36.38C90.0371 36.124 90.0291 35.792 90.0211 35.384H90.8011V36.428H90.8251C90.8811 36.276 90.9611 36.132 91.0651 35.996C91.1691 35.852 91.2931 35.724 91.4371 35.612C91.5891 35.5 91.7611 35.412 91.9531 35.348C92.1531 35.276 92.3771 35.24 92.6251 35.24C92.8491 35.24 93.0451 35.264 93.2131 35.312L93.0571 36.092C92.9531 36.052 92.8011 36.032 92.6011 36.032C92.2971 36.032 92.0371 36.092 91.8211 36.212C91.6051 36.324 91.4251 36.472 91.2811 36.656C91.1371 36.832 91.0291 37.024 90.9571 37.232C90.8931 37.44 90.8611 37.64 90.8611 37.832V41H90.0691V37.136Z" fill="black"/>
</svg>
